<svg xmlns="http://www.w3.org/2000/svg" viewBox="0 0 340 182" font-family="Inter, system-ui, sans-serif"><rect x="22.0" y="32" width="136" height="106" rx="6" fill="#ffffff" stroke="#e3e6ec" stroke-width="1.2"/><text x="90.0" y="153" font-size="10.5" fill="#5b626e" text-anchor="middle" font-style="italic">x₁</text><text x="15.0" y="85" font-size="10.5" fill="#5b626e" text-anchor="middle" font-style="italic" transform="rotate(-90 15.0 85)">x₂</text><text x="90.0" y="23" font-size="12.5" fill="#1f2230" text-anchor="middle" font-weight="700">t₁</text><line x1="44.4" y1="54.8" x2="131.0" y2="115.2" stroke="#7b8290" stroke-width="2.2" stroke-dasharray="5 4"/><circle cx="53.6" cy="101.8" r="4.3" fill="#2f43c4"/><circle cx="78.0" cy="119.7" r="4.3" fill="#2f43c4"/><circle cx="58.3" cy="73.1" r="4.3" fill="#2f43c4"/><circle cx="117.0" cy="119.2" r="4.3" fill="#2f43c4"/><circle cx="42.8" cy="101.5" r="4.3" fill="#2f43c4"/><circle cx="43.8" cy="73.5" r="4.3" fill="#2f43c4"/><circle cx="99.5" cy="108.5" r="4.3" fill="#2f43c4"/><circle cx="95.3" cy="98.7" r="4.3" fill="#2f43c4"/><circle cx="81.8" cy="106.0" r="4.3" fill="#2f43c4"/><circle cx="103.7" cy="118.1" r="4.3" fill="#2f43c4"/><circle cx="100.9" cy="59.6" r="4.3" fill="#e07a2f"/><circle cx="126.5" cy="78.2" r="4.3" fill="#e07a2f"/><circle cx="72.7" cy="64.3" r="4.3" fill="#e07a2f"/><circle cx="119.9" cy="95.6" r="4.3" fill="#e07a2f"/><circle cx="131.4" cy="105.3" r="4.3" fill="#e07a2f"/><circle cx="131.2" cy="63.8" r="4.3" fill="#e07a2f"/><circle cx="91.7" cy="58.3" r="4.3" fill="#e07a2f"/><circle cx="118.6" cy="83.3" r="4.3" fill="#e07a2f"/><rect x="182.0" y="32" width="136" height="106" rx="6" fill="#ffffff" stroke="#e3e6ec" stroke-width="1.2"/><text x="250.0" y="153" font-size="10.5" fill="#5b626e" text-anchor="middle" font-style="italic">x₁</text><text x="175.0" y="85" font-size="10.5" fill="#5b626e" text-anchor="middle" font-style="italic" transform="rotate(-90 175.0 85)">x₂</text><text x="250.0" y="23" font-size="12.5" fill="#1f2230" text-anchor="middle" font-weight="700">t₂</text><line x1="207.0" y1="121.0" x2="293.0" y2="49.0" stroke="#7b8290" stroke-width="2.2" stroke-dasharray="5 4"/><circle cx="238.0" cy="119.7" r="4.3" fill="#2f43c4"/><circle cx="286.5" cy="78.2" r="4.3" fill="#2f43c4"/><circle cx="277.0" cy="119.2" r="4.3" fill="#2f43c4"/><circle cx="279.9" cy="95.6" r="4.3" fill="#2f43c4"/><circle cx="259.5" cy="108.5" r="4.3" fill="#2f43c4"/><circle cx="291.4" cy="105.3" r="4.3" fill="#2f43c4"/><circle cx="255.3" cy="98.7" r="4.3" fill="#2f43c4"/><circle cx="291.2" cy="63.8" r="4.3" fill="#2f43c4"/><circle cx="241.8" cy="106.0" r="4.3" fill="#2f43c4"/><circle cx="278.6" cy="83.3" r="4.3" fill="#2f43c4"/><circle cx="263.7" cy="118.1" r="4.3" fill="#2f43c4"/><circle cx="213.6" cy="101.8" r="4.3" fill="#e07a2f"/><circle cx="260.9" cy="59.6" r="4.3" fill="#e07a2f"/><circle cx="218.3" cy="73.1" r="4.3" fill="#e07a2f"/><circle cx="232.7" cy="64.3" r="4.3" fill="#e07a2f"/><circle cx="202.8" cy="101.5" r="4.3" fill="#e07a2f"/><circle cx="203.8" cy="73.5" r="4.3" fill="#e07a2f"/><circle cx="251.7" cy="58.3" r="4.3" fill="#e07a2f"/><circle cx="27" cy="171" r="4.3" fill="#2f43c4"/><text x="35" y="174" font-size="10.5" fill="#5b626e">class A</text><circle cx="84" cy="171" r="4.3" fill="#e07a2f"/><text x="92" y="174" font-size="10.5" fill="#5b626e">class B</text><text x="318" y="174" font-size="10" fill="#7b8290" text-anchor="end">–– decision boundary</text></svg>
