<svg xmlns="http://www.w3.org/2000/svg" viewBox="0 0 340 182" font-family="Inter, system-ui, sans-serif"><rect x="22.0" y="32" width="136" height="106" rx="6" fill="#ffffff" stroke="#e3e6ec" stroke-width="1.2"/><text x="90.0" y="153" font-size="10.5" fill="#5b626e" text-anchor="middle" font-style="italic">x₁</text><text x="15.0" y="85" font-size="10.5" fill="#5b626e" text-anchor="middle" font-style="italic" transform="rotate(-90 15.0 85)">x₂</text><text x="90.0" y="23" font-size="12.5" fill="#1f2230" text-anchor="middle" font-weight="700">t₁</text><line x1="44.4" y1="54.8" x2="131.0" y2="115.2" stroke="#7b8290" stroke-width="2.2" stroke-dasharray="5 4"/><circle cx="48.7" cy="84.7" r="4.3" fill="#2f43c4"/><circle cx="62.0" cy="79.3" r="4.3" fill="#2f43c4"/><circle cx="48.1" cy="82.0" r="4.3" fill="#2f43c4"/><circle cx="58.9" cy="89.0" r="4.3" fill="#2f43c4"/><circle cx="48.7" cy="74.7" r="4.3" fill="#2f43c4"/><circle cx="60.3" cy="85.3" r="4.3" fill="#2f43c4"/><circle cx="65.2" cy="88.3" r="4.3" fill="#2f43c4"/><circle cx="55.4" cy="80.8" r="4.3" fill="#2f43c4"/><circle cx="71.5" cy="80.7" r="4.3" fill="#2f43c4"/><circle cx="69.6" cy="49.3" r="4.3" fill="#e07a2f"/><circle cx="74.9" cy="57.0" r="4.3" fill="#e07a2f"/><circle cx="72.3" cy="55.8" r="4.3" fill="#e07a2f"/><circle cx="76.0" cy="60.3" r="4.3" fill="#e07a2f"/><circle cx="80.9" cy="57.4" r="4.3" fill="#e07a2f"/><circle cx="63.6" cy="60.4" r="4.3" fill="#e07a2f"/><circle cx="65.8" cy="55.1" r="4.3" fill="#e07a2f"/><circle cx="65.5" cy="56.2" r="4.3" fill="#e07a2f"/><circle cx="69.7" cy="57.5" r="4.3" fill="#e07a2f"/><rect x="182.0" y="32" width="136" height="106" rx="6" fill="#ffffff" stroke="#e3e6ec" stroke-width="1.2"/><text x="250.0" y="153" font-size="10.5" fill="#5b626e" text-anchor="middle" font-style="italic">x₁</text><text x="175.0" y="85" font-size="10.5" fill="#5b626e" text-anchor="middle" font-style="italic" transform="rotate(-90 175.0 85)">x₂</text><text x="250.0" y="23" font-size="12.5" fill="#1f2230" text-anchor="middle" font-weight="700">t₂</text><line x1="204.4" y1="54.8" x2="291.0" y2="115.2" stroke="#7b8290" stroke-width="2.2" stroke-dasharray="5 4"/><circle cx="272.2" cy="107.5" r="4.3" fill="#2f43c4"/><circle cx="257.5" cy="99.8" r="4.3" fill="#2f43c4"/><circle cx="250.7" cy="111.8" r="4.3" fill="#2f43c4"/><circle cx="251.8" cy="110.0" r="4.3" fill="#2f43c4"/><circle cx="253.0" cy="101.7" r="4.3" fill="#2f43c4"/><circle cx="255.8" cy="102.9" r="4.3" fill="#2f43c4"/><circle cx="263.6" cy="104.8" r="4.3" fill="#2f43c4"/><circle cx="256.5" cy="107.8" r="4.3" fill="#2f43c4"/><circle cx="258.1" cy="104.2" r="4.3" fill="#2f43c4"/><circle cx="276.7" cy="80.8" r="4.3" fill="#e07a2f"/><circle cx="278.3" cy="85.3" r="4.3" fill="#e07a2f"/><circle cx="271.6" cy="76.9" r="4.3" fill="#e07a2f"/><circle cx="275.3" cy="84.4" r="4.3" fill="#e07a2f"/><circle cx="280.6" cy="79.3" r="4.3" fill="#e07a2f"/><circle cx="274.0" cy="84.6" r="4.3" fill="#e07a2f"/><circle cx="272.4" cy="82.8" r="4.3" fill="#e07a2f"/><circle cx="271.8" cy="78.0" r="4.3" fill="#e07a2f"/><circle cx="264.6" cy="79.2" r="4.3" fill="#e07a2f"/><circle cx="27" cy="171" r="4.3" fill="#2f43c4"/><text x="35" y="174" font-size="10.5" fill="#5b626e">class A</text><circle cx="84" cy="171" r="4.3" fill="#e07a2f"/><text x="92" y="174" font-size="10.5" fill="#5b626e">class B</text><text x="318" y="174" font-size="10" fill="#7b8290" text-anchor="end">–– decision boundary</text></svg>
