<svg xmlns="http://www.w3.org/2000/svg" viewBox="0 0 340 182" font-family="Inter, system-ui, sans-serif"><rect x="22.0" y="32" width="136" height="106" rx="6" fill="#ffffff" stroke="#e3e6ec" stroke-width="1.2"/><text x="90.0" y="153" font-size="10.5" fill="#5b626e" text-anchor="middle" font-style="italic">x₁</text><text x="15.0" y="85" font-size="10.5" fill="#5b626e" text-anchor="middle" font-style="italic" transform="rotate(-90 15.0 85)">x₂</text><text x="90.0" y="23" font-size="12.5" fill="#1f2230" text-anchor="middle" font-weight="700">t₁</text><line x1="44.4" y1="54.8" x2="131.0" y2="115.2" stroke="#7b8290" stroke-width="2.2" stroke-dasharray="5 4"/><circle cx="66.6" cy="89.9" r="4.3" fill="#2f43c4"/><circle cx="57.0" cy="87.4" r="4.3" fill="#2f43c4"/><circle cx="59.8" cy="91.2" r="4.3" fill="#2f43c4"/><circle cx="67.1" cy="100.1" r="4.3" fill="#2f43c4"/><circle cx="65.6" cy="100.7" r="4.3" fill="#2f43c4"/><circle cx="67.3" cy="92.5" r="4.3" fill="#2f43c4"/><circle cx="61.9" cy="83.9" r="4.3" fill="#2f43c4"/><circle cx="51.0" cy="91.0" r="4.3" fill="#2f43c4"/><circle cx="62.3" cy="94.1" r="4.3" fill="#2f43c4"/><circle cx="109.9" cy="60.9" r="4.3" fill="#e07a2f"/><circle cx="102.7" cy="61.8" r="4.3" fill="#e07a2f"/><circle cx="114.5" cy="68.8" r="4.3" fill="#e07a2f"/><circle cx="108.4" cy="63.3" r="4.3" fill="#e07a2f"/><circle cx="98.7" cy="65.5" r="4.3" fill="#e07a2f"/><circle cx="106.8" cy="72.7" r="4.3" fill="#e07a2f"/><circle cx="97.0" cy="71.8" r="4.3" fill="#e07a2f"/><circle cx="101.6" cy="65.9" r="4.3" fill="#e07a2f"/><circle cx="105.2" cy="66.5" r="4.3" fill="#e07a2f"/><rect x="182.0" y="32" width="136" height="106" rx="6" fill="#ffffff" stroke="#e3e6ec" stroke-width="1.2"/><text x="250.0" y="153" font-size="10.5" fill="#5b626e" text-anchor="middle" font-style="italic">x₁</text><text x="175.0" y="85" font-size="10.5" fill="#5b626e" text-anchor="middle" font-style="italic" transform="rotate(-90 175.0 85)">x₂</text><text x="250.0" y="23" font-size="12.5" fill="#1f2230" text-anchor="middle" font-weight="700">t₂</text><line x1="204.4" y1="54.8" x2="291.0" y2="115.2" stroke="#7b8290" stroke-width="2.2" stroke-dasharray="5 4"/><circle cx="227.1" cy="98.4" r="4.3" fill="#2f43c4"/><circle cx="226.1" cy="87.2" r="4.3" fill="#2f43c4"/><circle cx="226.7" cy="94.4" r="4.3" fill="#2f43c4"/><circle cx="230.2" cy="93.6" r="4.3" fill="#2f43c4"/><circle cx="210.7" cy="85.4" r="4.3" fill="#2f43c4"/><circle cx="220.3" cy="98.7" r="4.3" fill="#2f43c4"/><circle cx="222.4" cy="98.6" r="4.3" fill="#2f43c4"/><circle cx="225.7" cy="82.1" r="4.3" fill="#2f43c4"/><circle cx="223.8" cy="95.8" r="4.3" fill="#2f43c4"/><circle cx="226.6" cy="79.7" r="4.3" fill="#2f43c4"/><circle cx="226.8" cy="86.8" r="4.3" fill="#2f43c4"/><circle cx="206.8" cy="86.9" r="4.3" fill="#2f43c4"/><circle cx="207.9" cy="81.4" r="4.3" fill="#2f43c4"/><circle cx="234.8" cy="110.9" r="4.3" fill="#2f43c4"/><circle cx="231.8" cy="94.9" r="4.3" fill="#2f43c4"/><circle cx="238.4" cy="94.1" r="4.3" fill="#2f43c4"/><circle cx="215.7" cy="72.1" r="4.3" fill="#2f43c4"/><circle cx="200.9" cy="86.3" r="4.3" fill="#2f43c4"/><circle cx="224.0" cy="84.6" r="4.3" fill="#2f43c4"/><circle cx="274.7" cy="68.9" r="4.3" fill="#e07a2f"/><circle cx="269.0" cy="72.6" r="4.3" fill="#e07a2f"/><circle cx="27" cy="171" r="4.3" fill="#2f43c4"/><text x="35" y="174" font-size="10.5" fill="#5b626e">class A</text><circle cx="84" cy="171" r="4.3" fill="#e07a2f"/><text x="92" y="174" font-size="10.5" fill="#5b626e">class B</text><text x="318" y="174" font-size="10" fill="#7b8290" text-anchor="end">–– decision boundary</text></svg>
