<svg xmlns="http://www.w3.org/2000/svg" viewBox="0 0 130 70" width="100%" role="img" aria-hidden="true"><rect x="12" y="25" width="20" height="20" rx="3.5" fill="#eef0f4" stroke="#4f5bd5" stroke-width="1.5"/><path d="M17 25 q5 -9 11 0" fill="none" stroke="#4f5bd5" stroke-width="1.3"/><path d="M32 35.0 h12 m-5 -3.5 l5 3.5 l-5 3.5" fill="none" stroke="#9aa0a8" stroke-width="1.5" stroke-linecap="round" stroke-linejoin="round"/><rect x="44" y="25" width="20" height="20" rx="3.5" fill="#eef0f4" stroke="#4f5bd5" stroke-width="1.5"/><path d="M49 25 q5 -9 11 0" fill="none" stroke="#4f5bd5" stroke-width="1.3"/><path d="M64 35.0 h12 m-5 -3.5 l5 3.5 l-5 3.5" fill="none" stroke="#9aa0a8" stroke-width="1.5" stroke-linecap="round" stroke-linejoin="round"/><rect x="76" y="25" width="20" height="20" rx="3.5" fill="#eef0f4" stroke="#4f5bd5" stroke-width="1.5"/><path d="M81 25 q5 -9 11 0" fill="none" stroke="#4f5bd5" stroke-width="1.3"/><path d="M96 35.0 h12 m-5 -3.5 l5 3.5 l-5 3.5" fill="none" stroke="#9aa0a8" stroke-width="1.5" stroke-linecap="round" stroke-linejoin="round"/><rect x="108" y="25" width="20" height="20" rx="3.5" fill="#eef0f4" stroke="#4f5bd5" stroke-width="1.5"/><path d="M113 25 q5 -9 11 0" fill="none" stroke="#4f5bd5" stroke-width="1.3"/></svg>
