<svg xmlns="http://www.w3.org/2000/svg" viewBox="0 0 130 70" width="100%" role="img" aria-hidden="true"><rect x="16" y="9" width="8.5" height="8.5" rx="1.5" fill="#eef0f4" stroke="#c4c9d2" stroke-width="0.6"/><rect x="27" y="9" width="8.5" height="8.5" rx="1.5" fill="#eef0f4" stroke="#c4c9d2" stroke-width="0.6"/><rect x="38" y="9" width="8.5" height="8.5" rx="1.5" fill="#eef0f4" stroke="#c4c9d2" stroke-width="0.6"/><rect x="49" y="9" width="8.5" height="8.5" rx="1.5" fill="#eef0f4" stroke="#c4c9d2" stroke-width="0.6"/><rect x="60" y="9" width="8.5" height="8.5" rx="1.5" fill="#eef0f4" stroke="#c4c9d2" stroke-width="0.6"/><rect x="71" y="9" width="8.5" height="8.5" rx="1.5" fill="#eef0f4" stroke="#c4c9d2" stroke-width="0.6"/><rect x="16" y="20" width="8.5" height="8.5" rx="1.5" fill="#eef0f4" stroke="#c4c9d2" stroke-width="0.6"/><rect x="27" y="20" width="8.5" height="8.5" rx="1.5" fill="#eef0f4" stroke="#c4c9d2" stroke-width="0.6"/><rect x="38" y="20" width="8.5" height="8.5" rx="1.5" fill="#eef0f4" stroke="#c4c9d2" stroke-width="0.6"/><rect x="49" y="20" width="8.5" height="8.5" rx="1.5" fill="#eef0f4" stroke="#c4c9d2" stroke-width="0.6"/><rect x="60" y="20" width="8.5" height="8.5" rx="1.5" fill="#eef0f4" stroke="#c4c9d2" stroke-width="0.6"/><rect x="71" y="20" width="8.5" height="8.5" rx="1.5" fill="#eef0f4" stroke="#c4c9d2" stroke-width="0.6"/><rect x="16" y="31" width="8.5" height="8.5" rx="1.5" fill="#eef0f4" stroke="#c4c9d2" stroke-width="0.6"/><rect x="27" y="31" width="8.5" height="8.5" rx="1.5" fill="#eef0f4" stroke="#c4c9d2" stroke-width="0.6"/><rect x="38" y="31" width="8.5" height="8.5" rx="1.5" fill="#eef0f4" stroke="#c4c9d2" stroke-width="0.6"/><rect x="49" y="31" width="8.5" height="8.5" rx="1.5" fill="#eef0f4" stroke="#c4c9d2" stroke-width="0.6"/><rect x="60" y="31" width="8.5" height="8.5" rx="1.5" fill="#eef0f4" stroke="#c4c9d2" stroke-width="0.6"/><rect x="71" y="31" width="8.5" height="8.5" rx="1.5" fill="#eef0f4" stroke="#c4c9d2" stroke-width="0.6"/><rect x="16" y="42" width="8.5" height="8.5" rx="1.5" fill="#eef0f4" stroke="#c4c9d2" stroke-width="0.6"/><rect x="27" y="42" width="8.5" height="8.5" rx="1.5" fill="#eef0f4" stroke="#c4c9d2" stroke-width="0.6"/><rect x="38" y="42" width="8.5" height="8.5" rx="1.5" fill="#eef0f4" stroke="#c4c9d2" stroke-width="0.6"/><rect x="49" y="42" width="8.5" height="8.5" rx="1.5" fill="#eef0f4" stroke="#c4c9d2" stroke-width="0.6"/><rect x="60" y="42" width="8.5" height="8.5" rx="1.5" fill="#eef0f4" stroke="#c4c9d2" stroke-width="0.6"/><rect x="71" y="42" width="8.5" height="8.5" rx="1.5" fill="#eef0f4" stroke="#c4c9d2" stroke-width="0.6"/><rect x="14.5" y="7.5" width="22" height="22" rx="2.5" fill="none" stroke="#4f5bd5" stroke-width="2.2"/><path d="M85 20 h16 m-6 -4 l6 4 l-6 4" fill="none" stroke="#4f5bd5" stroke-width="1.8" stroke-linecap="round" stroke-linejoin="round"/></svg>
