<svg xmlns="http://www.w3.org/2000/svg" viewBox="0 0 130 70" width="100%" role="img" aria-hidden="true"><line x1="24" y1="18" x2="65" y2="12" stroke="#c4c9d2" stroke-width="0.7"/><line x1="24" y1="18" x2="65" y2="28" stroke="#c4c9d2" stroke-width="0.7"/><line x1="24" y1="18" x2="65" y2="44" stroke="#c4c9d2" stroke-width="0.7"/><line x1="24" y1="18" x2="65" y2="60" stroke="#c4c9d2" stroke-width="0.7"/><line x1="24" y1="35" x2="65" y2="12" stroke="#c4c9d2" stroke-width="0.7"/><line x1="24" y1="35" x2="65" y2="28" stroke="#c4c9d2" stroke-width="0.7"/><line x1="24" y1="35" x2="65" y2="44" stroke="#c4c9d2" stroke-width="0.7"/><line x1="24" y1="35" x2="65" y2="60" stroke="#c4c9d2" stroke-width="0.7"/><line x1="24" y1="52" x2="65" y2="12" stroke="#c4c9d2" stroke-width="0.7"/><line x1="24" y1="52" x2="65" y2="28" stroke="#c4c9d2" stroke-width="0.7"/><line x1="24" y1="52" x2="65" y2="44" stroke="#c4c9d2" stroke-width="0.7"/><line x1="24" y1="52" x2="65" y2="60" stroke="#c4c9d2" stroke-width="0.7"/><line x1="65" y1="12" x2="106" y2="18" stroke="#c4c9d2" stroke-width="0.7"/><line x1="65" y1="12" x2="106" y2="35" stroke="#c4c9d2" stroke-width="0.7"/><line x1="65" y1="12" x2="106" y2="52" stroke="#c4c9d2" stroke-width="0.7"/><line x1="65" y1="28" x2="106" y2="18" stroke="#c4c9d2" stroke-width="0.7"/><line x1="65" y1="28" x2="106" y2="35" stroke="#c4c9d2" stroke-width="0.7"/><line x1="65" y1="28" x2="106" y2="52" stroke="#c4c9d2" stroke-width="0.7"/><line x1="65" y1="44" x2="106" y2="18" stroke="#c4c9d2" stroke-width="0.7"/><line x1="65" y1="44" x2="106" y2="35" stroke="#c4c9d2" stroke-width="0.7"/><line x1="65" y1="44" x2="106" y2="52" stroke="#c4c9d2" stroke-width="0.7"/><line x1="65" y1="60" x2="106" y2="18" stroke="#c4c9d2" stroke-width="0.7"/><line x1="65" y1="60" x2="106" y2="35" stroke="#c4c9d2" stroke-width="0.7"/><line x1="65" y1="60" x2="106" y2="52" stroke="#c4c9d2" stroke-width="0.7"/><circle cx="24" cy="18" r="5" fill="#4f5bd5"/><circle cx="24" cy="35" r="5" fill="#4f5bd5"/><circle cx="24" cy="52" r="5" fill="#4f5bd5"/><circle cx="65" cy="12" r="5" fill="#4f5bd5"/><circle cx="65" cy="28" r="5" fill="#4f5bd5"/><circle cx="65" cy="44" r="5" fill="#4f5bd5"/><circle cx="65" cy="60" r="5" fill="#4f5bd5"/><circle cx="106" cy="18" r="5" fill="#4f5bd5"/><circle cx="106" cy="35" r="5" fill="#4f5bd5"/><circle cx="106" cy="52" r="5" fill="#4f5bd5"/></svg>
