<svg xmlns="http://www.w3.org/2000/svg" viewBox="0 0 660 250" font-family="Inter, system-ui, sans-serif"><polyline points="58.0 70.4 88.7 60.9 119.5 55.1 150.2 65.9 180.9 57.7 211.7 59.5 242.4 68.9 273.2 76.8 303.9 81.2 334.6 74.5 365.4 63.2 396.1 61.0 426.8 79.4 457.6 86.1 488.3 94.5 519.1 115.0 549.8 122.5 580.5 112.1 611.3 104.8 642.0 115.3" fill="none" stroke="#2f43c4" stroke-width="2"/><line x1="58" y1="206" x2="642" y2="206" stroke="#1f2230" stroke-width="1.1"/><line x1="58" y1="206" x2="58" y2="20" stroke="#1f2230" stroke-width="1.1"/><line x1="58.0" y1="206" x2="58.0" y2="210" stroke="#1f2230" stroke-width="1"/><text x="58.0" y="224" font-size="11.5" fill="#5b626e" text-anchor="middle">2014</text><line x1="119.5" y1="206" x2="119.5" y2="210" stroke="#1f2230" stroke-width="1"/><text x="119.5" y="224" font-size="11.5" fill="#5b626e" text-anchor="middle">2015</text><line x1="180.9" y1="206" x2="180.9" y2="210" stroke="#1f2230" stroke-width="1"/><text x="180.9" y="224" font-size="11.5" fill="#5b626e" text-anchor="middle">2016</text><line x1="242.4" y1="206" x2="242.4" y2="210" stroke="#1f2230" stroke-width="1"/><text x="242.4" y="224" font-size="11.5" fill="#5b626e" text-anchor="middle">2017</text><line x1="303.9" y1="206" x2="303.9" y2="210" stroke="#1f2230" stroke-width="1"/><text x="303.9" y="224" font-size="11.5" fill="#5b626e" text-anchor="middle">2018</text><line x1="365.4" y1="206" x2="365.4" y2="210" stroke="#1f2230" stroke-width="1"/><text x="365.4" y="224" font-size="11.5" fill="#5b626e" text-anchor="middle">2019</text><line x1="426.8" y1="206" x2="426.8" y2="210" stroke="#1f2230" stroke-width="1"/><text x="426.8" y="224" font-size="11.5" fill="#5b626e" text-anchor="middle">2020</text><line x1="488.3" y1="206" x2="488.3" y2="210" stroke="#1f2230" stroke-width="1"/><text x="488.3" y="224" font-size="11.5" fill="#5b626e" text-anchor="middle">2021</text><line x1="549.8" y1="206" x2="549.8" y2="210" stroke="#1f2230" stroke-width="1"/><text x="549.8" y="224" font-size="11.5" fill="#5b626e" text-anchor="middle">2022</text><line x1="611.3" y1="206" x2="611.3" y2="210" stroke="#1f2230" stroke-width="1"/><text x="611.3" y="224" font-size="11.5" fill="#5b626e" text-anchor="middle">2023</text><text x="50" y="210.0" font-size="11" fill="#5b626e" text-anchor="end">3.5</text><line x1="55" y1="206.0" x2="58" y2="206.0" stroke="#1f2230" stroke-width="1"/><text x="50" y="24.0" font-size="11" fill="#5b626e" text-anchor="end">4.5</text><line x1="55" y1="20.0" x2="58" y2="20.0" stroke="#1f2230" stroke-width="1"/><text x="350" y="245" font-size="12" fill="#5b626e" text-anchor="middle" font-style="italic">year</text><text x="15" y="113" font-size="12" fill="#5b626e" text-anchor="middle" font-style="italic" transform="rotate(-90 15 113)">mean rating</text></svg>
