<svg xmlns="http://www.w3.org/2000/svg" viewBox="0 0 660 250" font-family="Inter, system-ui, sans-serif"><line x1="58" y1="206" x2="642" y2="206" stroke="#1f2230" stroke-width="1.1"/><line x1="58" y1="206" x2="58" y2="20" stroke="#1f2230" stroke-width="1.1"/><text x="50" y="210.0" font-size="11" fill="#5b626e" text-anchor="end">0</text><line x1="55" y1="206.0" x2="58" y2="206.0" stroke="#1f2230" stroke-width="1"/><text x="50" y="24.0" font-size="11" fill="#5b626e" text-anchor="end">200k</text><line x1="55" y1="20.0" x2="58" y2="20.0" stroke="#1f2230" stroke-width="1"/><text x="350" y="245" font-size="12" fill="#5b626e" text-anchor="middle" font-style="italic">star rating</text><text x="15" y="113" font-size="12" fill="#5b626e" text-anchor="middle" font-style="italic" transform="rotate(-90 15 113)">reviews</text><rect x="94.4" y="174.2" width="44" height="31.8" rx="3" fill="#2f43c4"/><text x="116.4" y="224" font-size="12" fill="#5b626e" text-anchor="middle">1★</text><text x="116.4" y="168.2" font-size="10.5" fill="#5b626e" text-anchor="middle">34k</text><rect x="211.2" y="192.2" width="44" height="13.8" rx="3" fill="#2f43c4"/><text x="233.2" y="224" font-size="12" fill="#5b626e" text-anchor="middle">2★</text><text x="233.2" y="186.2" font-size="10.5" fill="#5b626e" text-anchor="middle">15k</text><rect x="328.0" y="187.5" width="44" height="18.5" rx="3" fill="#2f43c4"/><text x="350.0" y="224" font-size="12" fill="#5b626e" text-anchor="middle">3★</text><text x="350.0" y="181.5" font-size="10.5" fill="#5b626e" text-anchor="middle">20k</text><rect x="444.8" y="175.7" width="44" height="30.3" rx="3" fill="#2f43c4"/><text x="466.8" y="224" font-size="12" fill="#5b626e" text-anchor="middle">4★</text><text x="466.8" y="169.7" font-size="10.5" fill="#5b626e" text-anchor="middle">33k</text><rect x="561.6" y="21.4" width="44" height="184.6" rx="3" fill="#2f43c4"/><text x="583.6" y="224" font-size="12" fill="#5b626e" text-anchor="middle">5★</text><text x="583.6" y="15.4" font-size="10.5" fill="#5b626e" text-anchor="middle">199k</text></svg>
