<svg xmlns="http://www.w3.org/2000/svg" viewBox="0 0 660 250" font-family="Inter, system-ui, sans-serif"><polyline points="58.0 204.8 81.4 205.3 104.7 204.7 128.1 205.1 151.4 204.9 174.8 204.2 198.2 204.0 221.5 203.9 244.9 202.7 268.2 200.7 291.6 199.3 315.0 197.3 338.3 182.8 361.7 182.9 385.0 178.3 408.4 169.9 431.8 159.1 455.1 145.5 478.5 111.3 501.8 71.2 525.2 59.8 548.6 71.8 571.9 73.1 595.3 77.0 618.6 80.6 642.0 84.2" fill="none" stroke="#2f43c4" stroke-width="2"/><polyline points="58.0 205.5 81.4 205.8 104.7 205.5 128.1 205.3 151.4 205.0 174.8 205.2 198.2 205.0 221.5 204.5 244.9 203.9 268.2 202.6 291.6 200.1 315.0 198.9 338.3 196.0 361.7 191.9 385.0 184.6 408.4 173.1 431.8 158.3 455.1 140.1 478.5 128.5 501.8 124.9 525.2 119.4 548.6 119.0 571.9 114.9 595.3 110.2 618.6 109.6 642.0 113.4" fill="none" stroke="#e07a2f" stroke-width="2"/><polyline points="58.0 145.6 81.4 135.6 104.7 131.5 128.1 122.4 151.4 120.2 174.8 113.7 198.2 113.8 221.5 115.0 244.9 114.3 268.2 112.1 291.6 108.1 315.0 104.7 338.3 102.9 361.7 108.0 385.0 106.8 408.4 111.8 431.8 117.5 455.1 125.0 478.5 138.6 501.8 148.0 525.2 153.4 548.6 154.0 571.9 155.5 595.3 159.3 618.6 162.7 642.0 163.7" fill="none" stroke="#2e9e6b" stroke-width="2"/><polyline points="58.0 35.8 81.4 40.0 104.7 47.0 128.1 56.9 151.4 59.2 174.8 65.8 198.2 67.9 221.5 70.9 244.9 70.4 268.2 76.8 291.6 82.1 315.0 81.0 338.3 92.3 361.7 94.2 385.0 98.7 408.4 104.9 431.8 116.3 455.1 130.6 478.5 145.7 501.8 158.0 525.2 166.8 548.6 169.0 571.9 170.5 595.3 177.1 618.6 181.3 642.0 183.9" fill="none" stroke="#b5429a" stroke-width="2"/><polyline points="58.0 201.9 81.4 203.9 104.7 202.5 128.1 202.2 151.4 201.5 174.8 201.8 198.2 201.6 221.5 201.2 244.9 199.1 268.2 197.2 291.6 196.4 315.0 191.4 338.3 186.3 361.7 177.6 385.0 189.7 408.4 189.8 431.8 180.5 455.1 173.6 478.5 167.4 501.8 172.7 525.2 164.1 548.6 142.7 571.9 137.5 595.3 120.6 618.6 101.9 642.0 86.5" fill="none" stroke="#c9a227" stroke-width="2"/><line x1="58.0" y1="11" x2="74.0" y2="11" stroke="#2f43c4" stroke-width="2.4"/><text x="79.0" y="14.5" font-size="11" fill="#5b626e">cs.LG</text><line x1="117.0" y1="11" x2="133.0" y2="11" stroke="#e07a2f" stroke-width="2.4"/><text x="138.0" y="14.5" font-size="11" fill="#5b626e">cs.CV</text><line x1="176.0" y1="11" x2="192.0" y2="11" stroke="#2e9e6b" stroke-width="2.4"/><text x="197.0" y="14.5" font-size="11" fill="#5b626e">quant-ph</text><line x1="254.8" y1="11" x2="270.8" y2="11" stroke="#b5429a" stroke-width="2.4"/><text x="275.8" y="14.5" font-size="11" fill="#5b626e">hep-ph</text><line x1="320.4" y1="11" x2="336.4" y2="11" stroke="#c9a227" stroke-width="2.4"/><text x="341.4" y="14.5" font-size="11" fill="#5b626e">cs.AI</text><line x1="58" y1="206" x2="642" y2="206" stroke="#1f2230" stroke-width="1.1"/><line x1="58" y1="206" x2="58" y2="30" stroke="#1f2230" stroke-width="1.1"/><line x1="58.0" y1="206" x2="58.0" y2="210" stroke="#1f2230" stroke-width="1"/><text x="58.0" y="224" font-size="11.5" fill="#5b626e" text-anchor="middle">2000</text><line x1="174.8" y1="206" x2="174.8" y2="210" stroke="#1f2230" stroke-width="1"/><text x="174.8" y="224" font-size="11.5" fill="#5b626e" text-anchor="middle">2005</text><line x1="291.6" y1="206" x2="291.6" y2="210" stroke="#1f2230" stroke-width="1"/><text x="291.6" y="224" font-size="11.5" fill="#5b626e" text-anchor="middle">2010</text><line x1="408.4" y1="206" x2="408.4" y2="210" stroke="#1f2230" stroke-width="1"/><text x="408.4" y="224" font-size="11.5" fill="#5b626e" text-anchor="middle">2015</text><line x1="525.2" y1="206" x2="525.2" y2="210" stroke="#1f2230" stroke-width="1"/><text x="525.2" y="224" font-size="11.5" fill="#5b626e" text-anchor="middle">2020</text><line x1="642.0" y1="206" x2="642.0" y2="210" stroke="#1f2230" stroke-width="1"/><text x="642.0" y="224" font-size="11.5" fill="#5b626e" text-anchor="middle">2025</text><text x="50" y="210.0" font-size="11" fill="#5b626e" text-anchor="end">0%</text><line x1="55" y1="206.0" x2="58" y2="206.0" stroke="#1f2230" stroke-width="1"/><text x="50" y="34.0" font-size="11" fill="#5b626e" text-anchor="end">40%</text><line x1="55" y1="30.0" x2="58" y2="30.0" stroke="#1f2230" stroke-width="1"/><text x="350" y="245" font-size="12" fill="#5b626e" text-anchor="middle" font-style="italic">year</text><text x="15" y="113" font-size="12" fill="#5b626e" text-anchor="middle" font-style="italic" transform="rotate(-90 15 113)">share of papers</text></svg>
