<svg xmlns="http://www.w3.org/2000/svg" viewBox="0 0 660 250" font-family="Inter, system-ui, sans-serif"><path d="M 58.0 206 L 58.0 195.2 L 81.4 194.8 L 104.7 194.1 L 128.1 193.9 L 151.4 193.3 L 174.8 193.2 L 198.2 192.9 L 221.5 192.3 L 244.9 192.1 L 268.2 191.2 L 291.6 189.4 L 315.0 187.9 L 338.3 186.2 L 361.7 185.0 L 385.0 184.6 L 408.4 182.5 L 431.8 179.7 L 455.1 176.2 L 478.5 168.4 L 501.8 158.1 L 525.2 147.7 L 548.6 142.7 L 571.9 137.6 L 595.3 125.2 L 618.6 106.7 L 642.0 86.5 L 642.0 206 Z" fill="#dde1f6"/><polyline points="58.0 195.2 81.4 194.8 104.7 194.1 128.1 193.9 151.4 193.3 174.8 193.2 198.2 192.9 221.5 192.3 244.9 192.1 268.2 191.2 291.6 189.4 315.0 187.9 338.3 186.2 361.7 185.0 385.0 184.6 408.4 182.5 431.8 179.7 455.1 176.2 478.5 168.4 501.8 158.1 525.2 147.7 548.6 142.7 571.9 137.6 595.3 125.2 618.6 106.7 642.0 86.5" fill="none" stroke="#2f43c4" stroke-width="2"/><line x1="58" y1="206" x2="642" y2="206" stroke="#1f2230" stroke-width="1.1"/><line x1="58" y1="206" x2="58" y2="20" stroke="#1f2230" stroke-width="1.1"/><line x1="58.0" y1="206" x2="58.0" y2="210" stroke="#1f2230" stroke-width="1"/><text x="58.0" y="224" font-size="11.5" fill="#5b626e" text-anchor="middle">2000</text><line x1="174.8" y1="206" x2="174.8" y2="210" stroke="#1f2230" stroke-width="1"/><text x="174.8" y="224" font-size="11.5" fill="#5b626e" text-anchor="middle">2005</text><line x1="291.6" y1="206" x2="291.6" y2="210" stroke="#1f2230" stroke-width="1"/><text x="291.6" y="224" font-size="11.5" fill="#5b626e" text-anchor="middle">2010</text><line x1="408.4" y1="206" x2="408.4" y2="210" stroke="#1f2230" stroke-width="1"/><text x="408.4" y="224" font-size="11.5" fill="#5b626e" text-anchor="middle">2015</text><line x1="525.2" y1="206" x2="525.2" y2="210" stroke="#1f2230" stroke-width="1"/><text x="525.2" y="224" font-size="11.5" fill="#5b626e" text-anchor="middle">2020</text><line x1="642.0" y1="206" x2="642.0" y2="210" stroke="#1f2230" stroke-width="1"/><text x="642.0" y="224" font-size="11.5" fill="#5b626e" text-anchor="middle">2025</text><text x="50" y="210.0" font-size="11" fill="#5b626e" text-anchor="end">0</text><line x1="55" y1="206.0" x2="58" y2="206.0" stroke="#1f2230" stroke-width="1"/><text x="50" y="24.0" font-size="11" fill="#5b626e" text-anchor="end">200k</text><line x1="55" y1="20.0" x2="58" y2="20.0" stroke="#1f2230" stroke-width="1"/><text x="350" y="245" font-size="12" fill="#5b626e" text-anchor="middle" font-style="italic">year</text><text x="15" y="113" font-size="12" fill="#5b626e" text-anchor="middle" font-style="italic" transform="rotate(-90 15 113)">papers</text></svg>
