<svg xmlns="http://www.w3.org/2000/svg" viewBox="0 0 660 250" font-family="Inter, system-ui, sans-serif"><polyline points="58.0 135.6 63.4 147.3 74.2 75.9 79.6 123.5 85.0 121.8 90.4 81.8 95.9 74.0 101.3 112.5 106.7 55.1 112.1 112.5 117.5 127.8 133.7 88.7 149.9 110.0 155.3 97.4 160.7 30.0 166.1 81.7 171.6 74.0 177.0 77.7 182.4 98.7 187.8 118.0 193.2 91.7 198.6 107.0 204.0 87.2 209.4 94.7 214.8 86.1 220.2 94.4 225.6 102.0 231.0 116.0 236.4 89.1 241.9 98.2 247.3 99.6 252.7 98.1 258.1 95.6 263.5 96.5 268.9 104.5 274.3 98.0 279.7 93.6 285.1 104.8 290.5 119.7 295.9 115.0 301.3 111.0 306.7 113.2 312.1 107.8 317.6 107.1 323.0 110.3 328.4 103.2 333.8 110.5 339.2 119.9 344.6 112.8 350.0 109.1 355.4 117.1 360.8 112.0 366.2 118.2 371.6 125.1 377.0 113.8 382.4 124.1 387.9 130.1 393.3 123.4 398.7 121.1 404.1 113.9 409.5 108.6 414.9 113.6 420.3 112.1 425.7 124.5 431.1 106.9 436.5 110.4 441.9 114.6 447.3 107.9 452.7 106.7 458.1 110.4 463.6 115.7 469.0 109.4 474.4 115.5 479.8 116.3 485.2 112.8 490.6 119.6 496.0 105.4 501.4 110.3 506.8 115.6 512.2 119.7 517.6 126.2 523.0 122.5 528.4 117.3 533.9 138.1 539.3 110.7 544.7 119.2 550.1 116.1 555.5 110.2 560.9 121.3 566.3 116.1 571.7 113.0 577.1 105.5 582.5 118.6 587.9 121.2 593.3 114.9 598.7 109.2 604.1 105.4 609.6 114.0 615.0 117.4 620.4 126.9 625.8 124.6 631.2 141.3 636.6 118.0 642.0 111.0" fill="none" stroke="#2f43c4" stroke-width="2"/><polyline points="58.0 100.4 63.4 88.7 74.2 160.1 79.6 112.5 85.0 114.2 90.4 154.2 95.9 162.0 101.3 123.5 106.7 180.9 112.1 123.5 117.5 108.2 133.7 147.3 149.9 126.0 155.3 138.6 160.7 206.0 166.1 154.3 171.6 162.0 177.0 158.3 182.4 137.3 187.8 118.0 193.2 144.3 198.6 129.0 204.0 148.8 209.4 141.3 214.8 149.9 220.2 141.6 225.6 134.0 231.0 120.0 236.4 146.9 241.9 137.8 247.3 136.4 252.7 137.9 258.1 140.4 263.5 139.5 268.9 131.5 274.3 138.0 279.7 142.4 285.1 131.2 290.5 116.3 295.9 121.0 301.3 125.0 306.7 122.8 312.1 128.2 317.6 128.9 323.0 125.7 328.4 132.8 333.8 125.5 339.2 116.1 344.6 123.2 350.0 126.9 355.4 118.9 360.8 124.0 366.2 117.8 371.6 110.9 377.0 122.2 382.4 111.9 387.9 105.9 393.3 112.6 398.7 114.9 404.1 122.1 409.5 127.4 414.9 122.4 420.3 123.9 425.7 111.5 431.1 129.1 436.5 125.6 441.9 121.4 447.3 128.1 452.7 129.3 458.1 125.6 463.6 120.3 469.0 126.6 474.4 120.5 479.8 119.7 485.2 123.2 490.6 116.4 496.0 130.6 501.4 125.7 506.8 120.4 512.2 116.3 517.6 109.8 523.0 113.5 528.4 118.7 533.9 97.9 539.3 125.3 544.7 116.8 550.1 119.9 555.5 125.8 560.9 114.7 566.3 119.9 571.7 123.0 577.1 130.5 582.5 117.4 587.9 114.8 593.3 121.1 598.7 126.8 604.1 130.6 609.6 122.0 615.0 118.6 620.4 109.1 625.8 111.4 631.2 94.7 636.6 118.0 642.0 125.0" fill="none" stroke="#e07a2f" stroke-width="2"/><line x1="58.0" y1="11" x2="74.0" y2="11" stroke="#2f43c4" stroke-width="2.4"/><text x="79.0" y="14.5" font-size="11" fill="#5b626e">female</text><line x1="123.6" y1="11" x2="139.6" y2="11" stroke="#e07a2f" stroke-width="2.4"/><text x="144.6" y="14.5" font-size="11" fill="#5b626e">male</text><line x1="58" y1="206" x2="642" y2="206" stroke="#1f2230" stroke-width="1.1"/><line x1="58" y1="206" x2="58" y2="30" stroke="#1f2230" stroke-width="1.1"/><line x1="139.1" y1="206" x2="139.1" y2="210" stroke="#1f2230" stroke-width="1"/><text x="139.1" y="224" font-size="11.5" fill="#5b626e" text-anchor="middle">1920</text><line x1="247.3" y1="206" x2="247.3" y2="210" stroke="#1f2230" stroke-width="1"/><text x="247.3" y="224" font-size="11.5" fill="#5b626e" text-anchor="middle">1940</text><line x1="355.4" y1="206" x2="355.4" y2="210" stroke="#1f2230" stroke-width="1"/><text x="355.4" y="224" font-size="11.5" fill="#5b626e" text-anchor="middle">1960</text><line x1="463.6" y1="206" x2="463.6" y2="210" stroke="#1f2230" stroke-width="1"/><text x="463.6" y="224" font-size="11.5" fill="#5b626e" text-anchor="middle">1980</text><line x1="571.7" y1="206" x2="571.7" y2="210" stroke="#1f2230" stroke-width="1"/><text x="571.7" y="224" font-size="11.5" fill="#5b626e" text-anchor="middle">2000</text><text x="50" y="210.0" font-size="11" fill="#5b626e" text-anchor="end">0%</text><line x1="55" y1="206.0" x2="58" y2="206.0" stroke="#1f2230" stroke-width="1"/><text x="50" y="34.0" font-size="11" fill="#5b626e" text-anchor="end">100%</text><line x1="55" y1="30.0" x2="58" y2="30.0" stroke="#1f2230" stroke-width="1"/><text x="350" y="245" font-size="12" fill="#5b626e" text-anchor="middle" font-style="italic">year</text><text x="15" y="113" font-size="12" fill="#5b626e" text-anchor="middle" font-style="italic" transform="rotate(-90 15 113)">share of class</text></svg>
