<svg xmlns="http://www.w3.org/2000/svg" viewBox="0 0 660 250" font-family="Inter, system-ui, sans-serif"><path d="M 58.0 206 L 58.0 205.5 L 63.4 205.7 L 74.2 203.9 L 79.6 203.0 L 85.0 203.9 L 90.4 204.4 L 95.9 204.9 L 101.3 203.0 L 106.7 204.7 L 112.1 203.0 L 117.5 204.3 L 133.7 204.3 L 149.9 205.0 L 155.3 201.6 L 160.7 205.9 L 166.1 195.9 L 171.6 204.9 L 177.0 201.5 L 182.4 194.6 L 187.8 191.9 L 193.2 191.7 L 198.6 189.6 L 204.0 183.4 L 209.4 180.7 L 214.8 175.7 L 220.2 160.2 L 225.6 191.7 L 231.0 177.4 L 236.4 168.6 L 241.9 191.1 L 247.3 168.6 L 252.7 197.4 L 258.1 185.5 L 263.5 140.5 L 268.9 126.2 L 274.3 128.4 L 279.7 168.4 L 285.1 170.8 L 290.5 168.2 L 295.9 189.4 L 301.3 170.0 L 306.7 185.4 L 312.1 175.5 L 317.6 181.2 L 323.0 152.0 L 328.4 136.4 L 333.8 181.0 L 339.2 184.3 L 344.6 180.7 L 350.0 159.2 L 355.4 178.2 L 360.8 171.9 L 366.2 167.8 L 371.6 181.9 L 377.0 176.9 L 382.4 145.5 L 387.9 160.7 L 393.3 109.7 L 398.7 174.8 L 404.1 148.6 L 409.5 129.0 L 414.9 187.6 L 420.3 161.5 L 425.7 176.9 L 431.1 134.5 L 436.5 129.8 L 441.9 172.7 L 447.3 155.6 L 452.7 184.2 L 458.1 146.8 L 463.6 150.0 L 469.0 182.3 L 474.4 160.1 L 479.8 168.4 L 485.2 94.7 L 490.6 159.8 L 496.0 180.6 L 501.4 151.8 L 506.8 172.5 L 512.2 133.7 L 517.6 131.5 L 523.0 166.2 L 528.4 162.1 L 533.9 185.3 L 539.3 156.5 L 544.7 146.8 L 550.1 167.2 L 555.5 158.8 L 560.9 147.0 L 566.3 145.0 L 571.7 163.4 L 577.1 147.7 L 582.5 139.3 L 587.9 167.8 L 593.3 158.8 L 598.7 164.9 L 604.1 199.5 L 609.6 183.4 L 615.0 177.5 L 620.4 159.0 L 625.8 157.5 L 631.2 197.9 L 636.6 194.3 L 642.0 160.2 L 642.0 206 Z" fill="#dde1f6"/><polyline points="58.0 205.5 63.4 205.7 74.2 203.9 79.6 203.0 85.0 203.9 90.4 204.4 95.9 204.9 101.3 203.0 106.7 204.7 112.1 203.0 117.5 204.3 133.7 204.3 149.9 205.0 155.3 201.6 160.7 205.9 166.1 195.9 171.6 204.9 177.0 201.5 182.4 194.6 187.8 191.9 193.2 191.7 198.6 189.6 204.0 183.4 209.4 180.7 214.8 175.7 220.2 160.2 225.6 191.7 231.0 177.4 236.4 168.6 241.9 191.1 247.3 168.6 252.7 197.4 258.1 185.5 263.5 140.5 268.9 126.2 274.3 128.4 279.7 168.4 285.1 170.8 290.5 168.2 295.9 189.4 301.3 170.0 306.7 185.4 312.1 175.5 317.6 181.2 323.0 152.0 328.4 136.4 333.8 181.0 339.2 184.3 344.6 180.7 350.0 159.2 355.4 178.2 360.8 171.9 366.2 167.8 371.6 181.9 377.0 176.9 382.4 145.5 387.9 160.7 393.3 109.7 398.7 174.8 404.1 148.6 409.5 129.0 414.9 187.6 420.3 161.5 425.7 176.9 431.1 134.5 436.5 129.8 441.9 172.7 447.3 155.6 452.7 184.2 458.1 146.8 463.6 150.0 469.0 182.3 474.4 160.1 479.8 168.4 485.2 94.7 490.6 159.8 496.0 180.6 501.4 151.8 506.8 172.5 512.2 133.7 517.6 131.5 523.0 166.2 528.4 162.1 533.9 185.3 539.3 156.5 544.7 146.8 550.1 167.2 555.5 158.8 560.9 147.0 566.3 145.0 571.7 163.4 577.1 147.7 582.5 139.3 587.9 167.8 593.3 158.8 598.7 164.9 604.1 199.5 609.6 183.4 615.0 177.5 620.4 159.0 625.8 157.5 631.2 197.9 636.6 194.3 642.0 160.2" fill="none" stroke="#2f43c4" stroke-width="2"/><line x1="58" y1="206" x2="642" y2="206" stroke="#1f2230" stroke-width="1.1"/><line x1="58" y1="206" x2="58" y2="20" stroke="#1f2230" stroke-width="1.1"/><line x1="139.1" y1="206" x2="139.1" y2="210" stroke="#1f2230" stroke-width="1"/><text x="139.1" y="224" font-size="11.5" fill="#5b626e" text-anchor="middle">1920</text><line x1="247.3" y1="206" x2="247.3" y2="210" stroke="#1f2230" stroke-width="1"/><text x="247.3" y="224" font-size="11.5" fill="#5b626e" text-anchor="middle">1940</text><line x1="355.4" y1="206" x2="355.4" y2="210" stroke="#1f2230" stroke-width="1"/><text x="355.4" y="224" font-size="11.5" fill="#5b626e" text-anchor="middle">1960</text><line x1="463.6" y1="206" x2="463.6" y2="210" stroke="#1f2230" stroke-width="1"/><text x="463.6" y="224" font-size="11.5" fill="#5b626e" text-anchor="middle">1980</text><line x1="571.7" y1="206" x2="571.7" y2="210" stroke="#1f2230" stroke-width="1"/><text x="571.7" y="224" font-size="11.5" fill="#5b626e" text-anchor="middle">2000</text><text x="50" y="210.0" font-size="11" fill="#5b626e" text-anchor="end">0</text><line x1="55" y1="206.0" x2="58" y2="206.0" stroke="#1f2230" stroke-width="1"/><text x="50" y="24.0" font-size="11" fill="#5b626e" text-anchor="end">2k</text><line x1="55" y1="20.0" x2="58" y2="20.0" stroke="#1f2230" stroke-width="1"/><text x="350" y="245" font-size="12" fill="#5b626e" text-anchor="middle" font-style="italic">year</text><text x="15" y="113" font-size="12" fill="#5b626e" text-anchor="middle" font-style="italic" transform="rotate(-90 15 113)">portraits</text></svg>
