<svg xmlns="http://www.w3.org/2000/svg" viewBox="0 0 340 344" width="100%" role="img" aria-label="idealized temporal drift matrix"><rect x="52" y="292" width="29.4" height="29.4" fill="rgb(178,17,43)"/><rect x="82" y="292" width="29.4" height="29.4" fill="rgb(204,54,52)"/><rect x="112" y="292" width="29.4" height="29.4" fill="rgb(231,92,62)"/><rect x="142" y="292" width="29.4" height="29.4" fill="rgb(246,135,89)"/><rect x="172" y="292" width="29.4" height="29.4" fill="rgb(250,185,131)"/><rect x="202" y="292" width="29.4" height="29.4" fill="rgb(253,235,174)"/><rect x="232" y="292" width="29.4" height="29.4" fill="rgb(227,239,195)"/><rect x="262" y="292" width="29.4" height="29.4" fill="rgb(180,211,201)"/><rect x="292" y="292" width="29.4" height="29.4" fill="rgb(144,189,205)"/><rect x="52" y="262" width="29.4" height="29.4" fill="rgb(184,26,45)"/><rect x="82" y="262" width="29.4" height="29.4" fill="rgb(178,17,43)"/><rect x="112" y="262" width="29.4" height="29.4" fill="rgb(204,54,52)"/><rect x="142" y="262" width="29.4" height="29.4" fill="rgb(231,92,62)"/><rect x="172" y="262" width="29.4" height="29.4" fill="rgb(246,135,89)"/><rect x="202" y="262" width="29.4" height="29.4" fill="rgb(250,185,131)"/><rect x="232" y="262" width="29.4" height="29.4" fill="rgb(253,235,174)"/><rect x="262" y="262" width="29.4" height="29.4" fill="rgb(227,239,195)"/><rect x="292" y="262" width="29.4" height="29.4" fill="rgb(180,211,201)"/><rect x="52" y="232" width="29.4" height="29.4" fill="rgb(190,35,47)"/><rect x="82" y="232" width="29.4" height="29.4" fill="rgb(184,26,45)"/><rect x="112" y="232" width="29.4" height="29.4" fill="rgb(178,17,43)"/><rect x="142" y="232" width="29.4" height="29.4" fill="rgb(204,54,52)"/><rect x="172" y="232" width="29.4" height="29.4" fill="rgb(231,92,62)"/><rect x="202" y="232" width="29.4" height="29.4" fill="rgb(246,135,89)"/><rect x="232" y="232" width="29.4" height="29.4" fill="rgb(250,185,131)"/><rect x="262" y="232" width="29.4" height="29.4" fill="rgb(253,235,174)"/><rect x="292" y="232" width="29.4" height="29.4" fill="rgb(227,239,195)"/><rect x="52" y="202" width="29.4" height="29.4" fill="rgb(197,44,50)"/><rect x="82" y="202" width="29.4" height="29.4" fill="rgb(190,35,47)"/><rect x="112" y="202" width="29.4" height="29.4" fill="rgb(184,26,45)"/><rect x="142" y="202" width="29.4" height="29.4" fill="rgb(178,17,43)"/><rect x="172" y="202" width="29.4" height="29.4" fill="rgb(204,54,52)"/><rect x="202" y="202" width="29.4" height="29.4" fill="rgb(231,92,62)"/><rect x="232" y="202" width="29.4" height="29.4" fill="rgb(246,135,89)"/><rect x="262" y="202" width="29.4" height="29.4" fill="rgb(250,185,131)"/><rect x="292" y="202" width="29.4" height="29.4" fill="rgb(253,235,174)"/><rect x="52" y="172" width="29.4" height="29.4" fill="rgb(203,52,52)"/><rect x="82" y="172" width="29.4" height="29.4" fill="rgb(197,44,50)"/><rect x="112" y="172" width="29.4" height="29.4" fill="rgb(190,35,47)"/><rect x="142" y="172" width="29.4" height="29.4" fill="rgb(184,26,45)"/><rect x="172" y="172" width="29.4" height="29.4" fill="rgb(178,17,43)"/><rect x="202" y="172" width="29.4" height="29.4" fill="rgb(204,54,52)"/><rect x="232" y="172" width="29.4" height="29.4" fill="rgb(231,92,62)"/><rect x="262" y="172" width="29.4" height="29.4" fill="rgb(246,135,89)"/><rect x="292" y="172" width="29.4" height="29.4" fill="rgb(250,185,131)"/><rect x="52" y="142" width="29.4" height="29.4" fill="rgb(209,61,54)"/><rect x="82" y="142" width="29.4" height="29.4" fill="rgb(203,52,52)"/><rect x="112" y="142" width="29.4" height="29.4" fill="rgb(197,44,50)"/><rect x="142" y="142" width="29.4" height="29.4" fill="rgb(190,35,47)"/><rect x="172" y="142" width="29.4" height="29.4" fill="rgb(184,26,45)"/><rect x="202" y="142" width="29.4" height="29.4" fill="rgb(178,17,43)"/><rect x="232" y="142" width="29.4" height="29.4" fill="rgb(204,54,52)"/><rect x="262" y="142" width="29.4" height="29.4" fill="rgb(231,92,62)"/><rect x="292" y="142" width="29.4" height="29.4" fill="rgb(246,135,89)"/><rect x="52" y="112" width="29.4" height="29.4" fill="rgb(216,70,57)"/><rect x="82" y="112" width="29.4" height="29.4" fill="rgb(209,61,54)"/><rect x="112" y="112" width="29.4" height="29.4" fill="rgb(203,52,52)"/><rect x="142" y="112" width="29.4" height="29.4" fill="rgb(197,44,50)"/><rect x="172" y="112" width="29.4" height="29.4" fill="rgb(190,35,47)"/><rect x="202" y="112" width="29.4" height="29.4" fill="rgb(184,26,45)"/><rect x="232" y="112" width="29.4" height="29.4" fill="rgb(178,17,43)"/><rect x="262" y="112" width="29.4" height="29.4" fill="rgb(204,54,52)"/><rect x="292" y="112" width="29.4" height="29.4" fill="rgb(231,92,62)"/><rect x="52" y="82" width="29.4" height="29.4" fill="rgb(222,78,59)"/><rect x="82" y="82" width="29.4" height="29.4" fill="rgb(216,70,57)"/><rect x="112" y="82" width="29.4" height="29.4" fill="rgb(209,61,54)"/><rect x="142" y="82" width="29.4" height="29.4" fill="rgb(203,52,52)"/><rect x="172" y="82" width="29.4" height="29.4" fill="rgb(197,44,50)"/><rect x="202" y="82" width="29.4" height="29.4" fill="rgb(190,35,47)"/><rect x="232" y="82" width="29.4" height="29.4" fill="rgb(184,26,45)"/><rect x="262" y="82" width="29.4" height="29.4" fill="rgb(178,17,43)"/><rect x="292" y="82" width="29.4" height="29.4" fill="rgb(204,54,52)"/><rect x="52" y="52" width="29.4" height="29.4" fill="rgb(228,87,61)"/><rect x="82" y="52" width="29.4" height="29.4" fill="rgb(222,78,59)"/><rect x="112" y="52" width="29.4" height="29.4" fill="rgb(216,70,57)"/><rect x="142" y="52" width="29.4" height="29.4" fill="rgb(209,61,54)"/><rect x="172" y="52" width="29.4" height="29.4" fill="rgb(203,52,52)"/><rect x="202" y="52" width="29.4" height="29.4" fill="rgb(197,44,50)"/><rect x="232" y="52" width="29.4" height="29.4" fill="rgb(190,35,47)"/><rect x="262" y="52" width="29.4" height="29.4" fill="rgb(184,26,45)"/><rect x="292" y="52" width="29.4" height="29.4" fill="rgb(178,17,43)"/><rect x="52" y="52" width="270" height="270" fill="none" stroke="#c4c9d2" stroke-width="1"/><line x1="52" y1="322" x2="322" y2="52" stroke="#16181d" stroke-width="1" stroke-dasharray="3 2" opacity="0.5"/><text x="187.0" y="339" text-anchor="middle" font-family="Inter,system-ui,sans-serif" font-size="13" fill="#5b626e">evaluated on  &#8594;</text><text x="16" y="187.0" text-anchor="middle" font-family="Inter,system-ui,sans-serif" font-size="13" fill="#5b626e" transform="rotate(-90 16 187.0)">trained up to  &#8594;</text></svg>
